<mxfile host="app.diagrams.net" modified="2023-04-12T08:17:51.088Z" agent="Mozilla/5.0 (Macintosh; Intel Mac OS X 10_15_7) AppleWebKit/537.36 (KHTML, like Gecko) Chrome/111.0.0.0 Safari/537.36" version="21.1.1" etag="YyujjiIxwZQSbJ374dG7" type="github">
  <diagram name="Page-1" id="ABDe9-VUxwLN5vSOSTY3">
    <mxGraphModel>
      <root>
        <mxCell id="0" />
        <mxCell id="1" parent="0" />
      </root>
    </mxGraphModel>
  </diagram>
</mxfile>
